# Blender 4.4.0
# www.blender.org
mtllib spotlight.mtl
o Cube
v 1.000000 1.000000 1.000000
v 1.000000 -1.000000 1.000000
v -1.000000 1.000000 1.000000
v -1.000000 -1.000000 1.000000
v 1.000000 1.000000 -1.000000
v 1.000000 -1.000000 -1.000000
v -1.000000 1.000000 -1.000000
v -1.000000 -1.000000 -1.000000
v -1.000000 1.674334 0.511003
v -1.000000 1.674334 -1.000000
v 1.000000 1.674334 0.511004
v 1.000000 1.674334 -1.000000
v 1.000000 -1.648706 -1.000000
v -1.000000 -1.648706 -1.000000
v 1.000000 -1.648706 0.617307
v -1.000000 -1.648706 0.617307
v 1.687245 -1.000000 0.560612
v 1.687245 -1.000000 -1.000000
v 1.687245 1.000000 0.560612
v 1.687245 1.000000 -1.000000
v -1.618997 -1.000000 -1.000000
v -1.618997 1.000000 -1.000000
v -1.618997 1.000000 0.524510
v -1.618997 -1.000000 0.524510
v 1.000000 -1.000000 -0.475741
v -1.000000 -1.000000 -0.475741
v -1.000000 1.000000 -0.475741
v 1.000000 1.000000 -0.475741
v -1.000250 1.565977 -1.975942
v 0.999750 1.565977 -1.975942
v -1.000250 2.240312 -1.975942
v 0.999750 2.240312 -1.975942
v -1.455252 -1.000000 -1.979370
v -1.455252 1.000000 -1.979370
v -2.074249 -1.000000 -1.979370
v -2.074249 1.000000 -1.979370
v 1.479838 1.000000 -1.964606
v 1.479838 -1.000000 -1.964606
v 2.167083 1.000000 -1.964606
v 2.167083 -1.000000 -1.964606
v 1.000000 -1.383874 -1.966370
v -1.000000 -1.383874 -1.966370
v 1.000000 -2.032580 -1.966370
v -1.000000 -2.032580 -1.966370
v 0.730207 0.730207 2.266669
v 0.730207 -0.730207 2.266669
v -0.730207 0.730207 2.266669
v -0.730207 -0.730207 2.266669
vn -0.0000 0.5870 0.8096
vn -0.0000 -1.0000 -0.0000
vn -1.0000 -0.0000 -0.0000
vn 1.0000 -0.0000 -0.0000
vn -0.0000 0.9781 0.2083
vn -0.8953 -0.0000 -0.4454
vn -0.0000 1.0000 -0.0000
vn 1.0000 -0.0000 -0.0003
vn -0.0000 -0.5081 0.8613
vn 0.5387 -0.0000 0.8425
vn -0.6092 -0.0000 0.7930
vn -0.0000 -0.0000 -1.0000
vn -0.0000 0.8651 0.5017
vn -1.0000 -0.0000 0.0003
vn -0.0000 -0.8651 -0.5017
vn 0.9068 -0.0000 -0.4215
vn -0.9068 -0.0000 0.4215
vn 0.8953 -0.0000 0.4454
vn -0.0000 0.9294 -0.3692
vn -0.0000 -0.9294 0.3692
vn -0.0000 -0.0000 1.0000
vn -0.9781 -0.0000 0.2083
vn 0.9781 -0.0000 0.2083
vn -0.0000 -0.9781 0.2083
vt 0.625000 0.750000
vt 0.625000 0.500000
vt 0.375000 1.000000
vt 0.625000 0.250000
vt 0.375000 0.250000
vt 0.375000 0.500000
vt 0.875000 0.500000
vt 0.875000 0.750000
vt 0.625000 1.000000
vt 0.125000 0.500000
vt 0.375000 0.750000
vt 0.125000 0.750000
vt 0.375000 0.000000
vt 0.625000 0.000000
s 0
usemtl Material
f 3/1/1 1/2/1 11/2/1 9/1/1
f 8/3/2 21/3/2 35/3/2 33/3/2
f 5/4/3 6/5/3 25/5/3 28/4/3
f 6/5/4 2/6/4 15/6/4 13/5/4
f 1/2/5 3/1/5 47/1/5 45/2/5
f 6/5/6 5/4/6 37/4/6 38/5/6
f 11/2/7 12/7/7 10/8/7 9/1/7
f 1/2/4 5/4/4 12/4/4 11/2/4
f 7/9/3 3/1/3 9/1/3 10/9/3
f 12/4/8 5/4/8 30/4/8 32/4/8
f 13/10/2 15/6/2 16/11/2 14/12/2
f 4/11/3 8/3/3 14/3/3 16/11/3
f 6/5/4 13/5/4 43/5/4 41/5/4
f 2/6/9 4/11/9 16/11/9 15/6/9
f 18/5/4 20/4/4 19/2/4 17/6/4
f 2/6/2 6/5/2 18/5/2 17/6/2
f 5/4/7 1/2/7 19/2/7 20/4/7
f 1/2/10 2/6/10 17/6/10 19/2/10
f 24/11/3 23/1/3 22/9/3 21/3/3
f 8/3/2 4/11/2 24/11/2 21/3/2
f 3/1/7 7/9/7 22/9/7 23/1/7
f 4/11/11 3/1/11 23/1/11 24/11/11
f 26/13/12 27/14/12 28/4/12 25/5/12
f 8/13/4 7/14/4 27/14/4 26/13/4
f 6/5/7 8/13/7 26/13/7 25/5/7
f 7/14/2 5/4/2 28/4/2 27/14/2
f 30/4/12 29/14/12 31/14/12 32/4/12
f 10/8/13 12/7/13 32/7/13 31/8/13
f 7/9/14 10/9/14 31/9/14 29/9/14
f 5/4/15 7/14/15 29/14/15 30/4/15
f 34/14/12 33/13/12 35/13/12 36/14/12
f 7/14/16 8/13/16 33/13/16 34/14/16
f 21/3/17 22/9/17 36/9/17 35/3/17
f 22/9/7 7/9/7 34/9/7 36/9/7
f 38/5/12 37/4/12 39/4/12 40/5/12
f 5/4/7 20/4/7 39/4/7 37/4/7
f 20/4/18 18/5/18 40/5/18 39/4/18
f 18/5/2 6/5/2 38/5/2 40/5/2
f 42/13/12 41/5/12 43/5/12 44/13/12
f 14/3/3 8/3/3 42/3/3 44/3/3
f 8/13/19 6/5/19 41/5/19 42/13/19
f 13/10/20 14/12/20 44/12/20 43/10/20
f 46/6/21 45/2/21 47/1/21 48/11/21
f 3/1/22 4/11/22 48/11/22 47/1/22
f 2/6/23 1/2/23 45/2/23 46/6/23
f 4/11/24 2/6/24 46/6/24 48/11/24
