{
	"asset":{
		"generator":"Khronos glTF Blender I/O v4.4.55",
		"version":"2.0"
	},
	"scene":0,
	"scenes":[
		{
			"name":"Scene",
			"nodes":[
				3
			]
		}
	],
	"nodes":[
		{
			"mesh":0,
			"name":"defaultMaterial",
			"scale":[
				0.10000000149011612,
				0.10000000149011612,
				0.10000000149011612
			]
		},
		{
			"children":[
				0
			],
			"name":"StanfordDragon_low"
		},
		{
			"children":[
				1
			],
			"name":"Collada visual scene group",
			"rotation":[
				0.70710688829422,
				0,
				0,
				0.7071066498756409
			]
		},
		{
			"children":[
				2
			],
			"name":"Sketchfab_model",
			"rotation":[
				-0.70710688829422,
				0,
				0,
				0.7071066498756409
			]
		}
	],
	"materials":[
		{
			"doubleSided":true,
			"name":"DefaultMaterial",
			"normalTexture":{
				"index":0
			},
			"occlusionTexture":{
				"index":1
			},
			"pbrMetallicRoughness":{
				"baseColorTexture":{
					"index":2
				},
				"metallicRoughnessTexture":{
					"index":1
				}
			}
		}
	],
	"meshes":[
		{
			"name":"defaultMaterial",
			"primitives":[
				{
					"attributes":{
						"POSITION":0,
						"NORMAL":1,
						"TEXCOORD_0":2
					},
					"indices":3,
					"material":0
				}
			]
		}
	],
	"textures":[
		{
			"sampler":0,
			"source":0
		},
		{
			"sampler":0,
			"source":1
		},
		{
			"sampler":0,
			"source":2
		}
	],
	"images":[
		{
			"mimeType":"image/png",
			"name":"DefaultMaterial_normal",
			"uri":"DefaultMaterial_normal.png"
		},
		{
			"mimeType":"image/png",
			"name":"DefaultMaterial_metallicRoughness",
			"uri":"DefaultMaterial_metallicRoughness.png"
		},
		{
			"mimeType":"image/jpeg",
			"name":"DefaultMaterial_baseColor",
			"uri":"DefaultMaterial_baseColor.jpg"
		}
	],
	"accessors":[
		{
			"bufferView":0,
			"componentType":5126,
			"count":11121,
			"max":[
				70.84239959716797,
				99.60400390625,
				31.645431518554688
			],
			"min":[
				-70.67630767822266,
				-0.0041240002028644085,
				-31.56644058227539
			],
			"type":"VEC3"
		},
		{
			"bufferView":1,
			"componentType":5126,
			"count":11121,
			"type":"VEC3"
		},
		{
			"bufferView":2,
			"componentType":5126,
			"count":11121,
			"type":"VEC2"
		},
		{
			"bufferView":3,
			"componentType":5123,
			"count":57996,
			"type":"SCALAR"
		}
	],
	"bufferViews":[
		{
			"buffer":0,
			"byteLength":133452,
			"byteOffset":0,
			"target":34962
		},
		{
			"buffer":0,
			"byteLength":133452,
			"byteOffset":133452,
			"target":34962
		},
		{
			"buffer":0,
			"byteLength":88968,
			"byteOffset":266904,
			"target":34962
		},
		{
			"buffer":0,
			"byteLength":115992,
			"byteOffset":355872,
			"target":34963
		}
	],
	"samplers":[
		{
			"magFilter":9729,
			"minFilter":9987
		}
	],
	"buffers":[
		{
			"byteLength":471864,
			"uri":"dragon.bin"
		}
	]
}
